<?xml version="1.0" ?><!DOCTYPE svg  PUBLIC '-//W3C//DTD SVG 1.1//EN'  'http://www.w3.org/Graphics/SVG/1.1/DTD/svg11.dtd'><svg enable-background="new 0 0 512 512" height="512px" id="Layer_1" version="1.1" viewBox="0 0 512 512" width="512px" xml:space="preserve" xmlns="http://www.w3.org/2000/svg" xmlns:xlink="http://www.w3.org/1999/xlink"><path d="M511.999,432c0,44.182-35.816,80-80,80H80c-44.183,0-80-35.818-80-80V80C0,35.817,35.818,0,80,0h351.999  c44.184,0,80,35.817,80,80V432z" fill="#E67E17"/><path d="M511.999,432V318.453L312.606,119.06l-23.639,23.639C280.645,136.027,269.902,132,258.167,132  c-26.418,0-47.833,20.371-47.833,45.5c0,11.981,4.876,22.874,12.833,30.999l-25.096,25.097l79.047,79.048l-16.737,16.736  l-66.296-66.295l-28.14,28.139l67.296,67.297l-51.541,51.541L283.639,512h148.36C476.183,512,511.999,476.182,511.999,432z" fill="#B25C0F"/><path d="M256,257.978c44.729,0,80.989-36.26,80.989-80.989S300.729,96,256,96c-44.729,0-80.99,36.26-80.99,80.989  S211.271,257.978,256,257.978z M256,137.144c22.006,0,39.846,17.84,39.846,39.845s-17.84,39.844-39.846,39.844  s-39.845-17.839-39.845-39.844S233.994,137.144,256,137.144z M349.358,267.859c-4.574-9.186-17.237-16.827-34.067-3.564  C292.542,282.22,256,282.22,256,282.22s-36.54,0-59.29-17.925c-16.83-13.263-29.495-5.621-34.068,3.564  c-7.971,16.015,1.037,23.754,21.36,36.801c17.362,11.146,41.216,15.309,56.62,16.866l-12.858,12.858  c-18.113,18.111-35.595,35.596-47.726,47.725c-7.252,7.252-7.252,19.012,0,26.264l2.188,2.188c7.252,7.253,19.01,7.252,26.263,0  l47.725-47.727c18.113,18.113,35.596,35.598,47.726,47.727c7.251,7.252,19.011,7.252,26.264,0l2.188-2.189  c7.253-7.252,7.251-19.01,0-26.263l-47.725-47.727l-12.899-12.897c15.417-1.587,39.015-5.771,56.231-16.824  C348.322,291.613,357.328,283.874,349.358,267.859z" fill="#FFFFFF"/></svg>