<?xml version="1.0" ?><!DOCTYPE svg  PUBLIC '-//W3C//DTD SVG 1.1//EN'  'http://www.w3.org/Graphics/SVG/1.1/DTD/svg11.dtd'><svg height="43.3492mm" style="shape-rendering:geometricPrecision; text-rendering:geometricPrecision; image-rendering:optimizeQuality; fill-rule:evenodd; clip-rule:evenodd" version="1.1" viewBox="0 0 4335 4335" width="43.3492mm" xml:space="preserve" xmlns="http://www.w3.org/2000/svg" xmlns:xlink="http://www.w3.org/1999/xlink"><defs><style type="text/css">
   <![CDATA[
    .fil1-skype {fill:#FEFEFE}
    .fil0-skype {fill:#3E9DD7}
   ]]>
  </style></defs><g id="Layer_x0020_1"><g id="_680023792"><path class="fil0-skype" d="M731 18l2863 0c384,0 699,314 699,699l0 2863c0,384 -314,699 -699,699l-2863 0c-384,0 -699,-314 -699,-699l0 -2863c0,-384 314,-699 699,-699z"/><path class="fil1-skype" d="M2077 1613c-207,31 -349,242 -116,337 159,65 368,78 541,148 151,62 295,173 333,347 46,217 -110,385 -221,463 -435,305 -1191,9 -1125,-328 18,-91 114,-150 219,-103 137,61 135,223 423,264 260,37 419,-168 305,-284 -170,-174 -735,-87 -903,-466 -84,-190 37,-419 133,-506 275,-248 783,-177 1017,55 181,180 33,423 -147,293 -110,-80 -236,-253 -458,-220zm-1127 112c18,100 41,143 82,223 43,85 -75,370 147,765 134,239 367,449 694,538 131,36 285,46 423,28 73,-10 57,-14 115,17 140,75 339,99 508,44 271,-88 518,-375 460,-752 -13,-86 -42,-165 -79,-231 -36,-65 -30,-38 -22,-124 45,-516 -293,-1021 -825,-1174 -127,-36 -279,-49 -412,-34 -79,9 -55,11 -115,-21 -154,-82 -337,-107 -518,-49 -275,88 -529,383 -458,769z"/></g></g></svg>
