<?xml version="1.0" ?><!DOCTYPE svg  PUBLIC '-//W3C//DTD SVG 1.1//EN'  'http://www.w3.org/Graphics/SVG/1.1/DTD/svg11.dtd'><svg height="43.3492mm" style="shape-rendering:geometricPrecision; text-rendering:geometricPrecision; image-rendering:optimizeQuality; fill-rule:evenodd; clip-rule:evenodd" version="1.1" viewBox="0 0 4335 4335" width="43.3492mm" xml:space="preserve" xmlns="http://www.w3.org/2000/svg" xmlns:xlink="http://www.w3.org/1999/xlink"><defs><style type="text/css">
   <![CDATA[
    .fil1-twitter {fill:#FEFEFE}
    .fil0-twitter {fill:#1EBEF0!important}
   ]]>
  </style></defs><g id="Layer_x0020_1"><g id="_680618848"><path class="fil0-twitter" d="M735 18l2878 0c386,0 703,316 703,703l0 2878c0,386 -316,703 -703,703l-2878 0c-386,0 -703,-316 -703,-703l0 -2878c0,-386 316,-703 703,-703z"/><path class="fil1-twitter" d="M3354 1422c0,0 -29,117 -146,204 -117,87 -146,117 -146,117 0,0 146,554 -408,1049 -553,495 -1340,320 -1398,291 -58,-29 -262,-146 -262,-146 0,0 320,-58 466,-117 146,-58 204,-117 204,-117 0,0 -233,-29 -320,-87 -87,-58 -146,-233 -146,-233l233 0c0,0 -175,-87 -262,-204 -87,-117 -87,-291 -87,-291l146 29c0,0 -175,-175 -146,-408 29,-233 58,-262 58,-262 0,0 204,408 583,466 379,58 408,58 408,58 -123,-817 911,-607 845,-408 0,0 233,-117 262,-175 29,-58 -58,262 -58,262l175 -29z"/></g></g></svg>
